<?xml version="1.0" encoding="UTF-8"?>
<svg version="1.1" xmlns="http://www.w3.org/2000/svg" width="225" height="225">
<path d="M0 0 C74.25 0 148.5 0 225 0 C225 74.25 225 148.5 225 225 C150.75 225 76.5 225 0 225 C0 150.75 0 76.5 0 0 Z " fill="#085165" transform="translate(0,0)"/>
<path d="M0 0 C1.54135368 -0.01051392 1.54135368 -0.01051392 3.11384583 -0.02124023 C6.47526924 -0.03869508 9.83583522 -0.02724167 13.19726562 -0.01367188 C15.55416015 -0.01637037 17.91105359 -0.02025576 20.26794434 -0.02526855 C25.1935492 -0.0311467 30.11886275 -0.02265475 35.04443359 -0.00390625 C41.33545881 0.01888179 47.62580124 0.00574971 53.91680145 -0.01819611 C58.77949094 -0.03269946 63.64202047 -0.02802724 68.50471497 -0.01768494 C70.82339053 -0.0150302 73.14208095 -0.01824293 75.46073914 -0.02760315 C78.70989056 -0.03784345 81.95795974 -0.02216264 85.20703125 0 C86.62258049 -0.01214539 86.62258049 -0.01214539 88.06672668 -0.02453613 C97.53826697 0.09422727 106.49103515 2.72276104 113.39624023 9.44775391 C120.25972641 17.76873715 120.87473187 26.99623176 120.70043945 37.32446289 C120.66600377 39.58085522 120.67986538 41.83333916 120.69921875 44.08984375 C120.68888576 53.84861646 119.78279642 63.57680931 112.84570312 71.13867188 C103.9828121 78.15347127 94.5288695 79.68279377 83.59790039 79.63110352 C82.77757828 79.63124954 81.95725616 79.63139557 81.11207581 79.63154602 C78.42299682 79.63085396 75.73398864 79.62309491 73.04492188 79.61523438 C71.17162616 79.61336768 69.29832995 79.61194496 67.42503357 79.61094666 C62.51122676 79.60714128 57.59744984 79.597328 52.68365479 79.58624268 C47.66280522 79.57598589 42.64195079 79.57143991 37.62109375 79.56640625 C27.78188585 79.55570386 17.9427079 79.5381232 8.10351562 79.51757812 C8.10351562 70.27757813 8.10351562 61.03757812 8.10351562 51.51757812 C47.70351563 51.02257812 47.70351563 51.02257812 88.10351562 50.51757812 C88.10351562 44.24757812 88.10351562 37.97757813 88.10351562 31.51757812 C84.79615523 28.21021773 83.83238599 28.16379692 79.36936951 28.11099243 C78.59005569 28.11706512 77.81074188 28.12313782 77.0078125 28.12939453 C76.1831398 28.12413757 75.3584671 28.11888062 74.50880432 28.11346436 C71.77976606 28.10024837 69.05130994 28.10900798 66.32226562 28.11914062 C64.42801806 28.11712035 62.53377126 28.1142093 60.63952637 28.11044312 C56.66830037 28.1060176 52.69727671 28.11245814 48.72607422 28.12646484 C43.63133387 28.14355685 38.53706761 28.13371689 33.44234467 28.11574745 C29.53046078 28.10491577 25.61868961 28.10835313 21.70680237 28.11613083 C19.82808883 28.11813454 17.94936511 28.11566758 16.07066345 28.10869217 C13.44657211 28.10108779 10.82325249 28.11266737 8.19921875 28.12939453 C7.41990494 28.12332184 6.64059113 28.11724915 5.83766174 28.11099243 C2.94591662 28.14520631 0.66639202 28.19575987 -1.87820435 29.65060425 C-3.37911901 32.40246855 -3.27811773 34.65147212 -3.28466797 37.77734375 C-3.29412445 39.06878296 -3.30358093 40.36022217 -3.31332397 41.6907959 C-3.30795429 43.10180976 -3.30180135 44.51282082 -3.29492188 45.92382812 C-3.29694273 47.36967109 -3.29985426 48.81551306 -3.30361938 50.26135254 C-3.30804226 53.291033 -3.30161314 56.32044805 -3.28759766 59.35009766 C-3.27050542 63.23420588 -3.28034685 67.11769224 -3.29831505 71.00177765 C-3.30915407 73.98720996 -3.30570608 76.97249477 -3.29793167 79.95793152 C-3.29592997 81.39007134 -3.2983879 82.82222455 -3.30537033 84.25434875 C-3.31298581 86.25550074 -3.29932099 88.25669967 -3.28466797 90.2578125 C-3.28228119 91.39682007 -3.27989441 92.53582764 -3.2774353 93.70935059 C-3.1317384 96.47748835 -3.1317384 96.47748835 -1.67283344 98.16817188 C0.64421114 99.92831828 2.01127224 99.90079225 4.90605164 99.91630554 C6.38892166 99.93511276 6.38892166 99.93511276 7.90174866 99.95429993 C8.98499924 99.95286484 10.06824982 99.95142975 11.18432617 99.94995117 C12.89673492 99.96523865 12.89673492 99.96523865 14.64373779 99.98083496 C18.42595246 100.01108557 22.20791438 100.02024955 25.99023438 100.02929688 C28.60912425 100.04613457 31.22800599 100.06428356 33.84687805 100.08369446 C40.04100385 100.12738847 46.23510327 100.1559175 52.42933637 100.17901784 C59.48134512 100.20605406 66.53321706 100.24996646 73.58512819 100.29530656 C88.09118861 100.38819433 102.5972806 100.45762816 117.10351562 100.51757812 C117.10351562 109.42757812 117.10351562 118.33757812 117.10351562 127.51757812 C100.49123529 127.6307076 83.87928679 127.7227024 67.26672745 127.77663898 C59.55218912 127.80235501 51.8379082 127.83737794 44.12353516 127.89477539 C37.39496449 127.94481403 30.66658036 127.97691706 23.93782878 127.9880206 C20.37916753 127.99450509 16.82103963 128.00960439 13.26255035 128.04622841 C9.27733815 128.08690664 5.29303667 128.08751458 1.30761719 128.08520508 C-0.43703575 128.11216965 -0.43703575 128.11216965 -2.2169342 128.13967896 C-11.80285732 128.07988603 -20.55211277 125.76204271 -27.89648438 119.33007812 C-36.21851209 109.78819692 -35.50424019 98.43462919 -35.46289062 86.51757812 C-35.46813471 84.67252287 -35.47441404 82.8274703 -35.48167419 80.98242188 C-35.49204077 77.12942827 -35.48757034 73.27680486 -35.47290039 69.42382812 C-35.45570702 64.50794932 -35.47923427 59.59323883 -35.51438999 54.67749023 C-35.5364409 50.87166735 -35.53490416 47.06612081 -35.52662468 43.26025391 C-35.52580959 41.44871742 -35.53258767 39.63715974 -35.54739571 37.82568359 C-35.6223072 27.00609586 -35.57003861 18.15030794 -28.18946838 9.52197266 C-20.38503551 1.87456351 -10.58313937 -0.09080314 0 0 Z " fill="#FBFCFC" transform="translate(69.896484375,48.482421875)"/>
<path d="M0 0 C0.33 0 0.66 0 1 0 C1 8.91 1 17.82 1 27 C-8.24 27 -17.48 27 -27 27 C-27 26.67 -27 26.34 -27 26 C-26.3709375 25.90203125 -25.741875 25.8040625 -25.09375 25.703125 C-17.3703837 24.35386221 -10.89738202 22.66993398 -5.6875 16.5 C-2.21992371 11.51122539 -1.11905141 5.88974428 0 0 Z " fill="#F5F7F8" transform="translate(224,198)"/>
<path d="M0 0 C8.25 0 16.5 0 25 0 C25 8.58 25 17.16 25 26 C23.50191452 23.00382903 22.28800195 20.18145978 21.125 17.0625 C18.44162603 10.39323841 15.63023661 6.87132916 9.10546875 3.84765625 C6.11236861 2.64264191 3.12958997 1.78239749 0 1 C0 0.67 0 0.34 0 0 Z " fill="#F7F9F9" transform="translate(200,0)"/>
<path d="M0 0 C1.79281163 2.68921744 2.77177132 4.87531209 3.875 7.875 C6.90243339 15.43261451 10.21088104 18.44148131 17.46484375 21.984375 C19.97834662 22.9913253 22.33370088 23.56118154 25 24 C25 24.33 25 24.66 25 25 C16.75 25 8.5 25 0 25 C0 16.75 0 8.5 0 0 Z " fill="#F8FAFA" transform="translate(0,200)"/>
<path d="M0 0 C7.92 0 15.84 0 24 0 C21.90051831 1.04974084 19.79252005 2.08833305 17.6328125 3.0078125 C11.33365656 5.81397854 7.15841962 8.76655137 4 15 C2.74315733 18.62238305 1.78608188 22.24887242 1 26 C0.67 26 0.34 26 0 26 C0 17.42 0 8.84 0 0 Z " fill="#F8F9FA" transform="translate(0,0)"/>
</svg>
